<mxfile host="app.diagrams.net" modified="2023-11-07T03:06:48.600Z" agent="Mozilla/5.0 (Windows NT 10.0; Win64; x64) AppleWebKit/537.36 (KHTML, like Gecko) Chrome/119.0.0.0 Safari/537.36" etag="s5rudwpgx_I2xrxZMAlp" version="22.0.8" type="device">
  <diagram name="Page-1" id="xoItH3PU-tjLEWq1mcnr">
    <mxGraphModel dx="1018" dy="591" grid="1" gridSize="10" guides="1" tooltips="1" connect="1" arrows="1" fold="1" page="1" pageScale="1" pageWidth="827" pageHeight="1169" math="0" shadow="0">
      <root>
        <mxCell id="0" />
        <mxCell id="1" parent="0" />
        <mxCell id="zrfU4UN5NozJmZzdHuFO-1" value="Диаграмма компонентов" style="text;html=1;align=center;verticalAlign=middle;resizable=0;points=[];autosize=1;strokeColor=none;fillColor=none;" parent="1" vertex="1">
          <mxGeometry x="140" y="40" width="160" height="30" as="geometry" />
        </mxCell>
        <mxCell id="Q52SVTJZsQ3tDjHk9fBw-1" value="«component»&lt;br&gt;&lt;b&gt;CoffeeShop&lt;br&gt;&lt;/b&gt;" style="html=1;dropTarget=0;whiteSpace=wrap;" vertex="1" parent="1">
          <mxGeometry x="270" y="150" width="180" height="90" as="geometry" />
        </mxCell>
        <mxCell id="Q52SVTJZsQ3tDjHk9fBw-2" value="" style="shape=module;jettyWidth=8;jettyHeight=4;" vertex="1" parent="Q52SVTJZsQ3tDjHk9fBw-1">
          <mxGeometry x="1" width="20" height="20" relative="1" as="geometry">
            <mxPoint x="-27" y="7" as="offset" />
          </mxGeometry>
        </mxCell>
        <mxCell id="Q52SVTJZsQ3tDjHk9fBw-3" value="&lt;b&gt;&lt;br&gt;&lt;/b&gt;" style="html=1;dropTarget=0;whiteSpace=wrap;" vertex="1" parent="1">
          <mxGeometry x="270" y="300" width="180" height="90" as="geometry" />
        </mxCell>
        <mxCell id="Q52SVTJZsQ3tDjHk9fBw-4" value="" style="shape=module;jettyWidth=8;jettyHeight=4;" vertex="1" parent="Q52SVTJZsQ3tDjHk9fBw-3">
          <mxGeometry x="1" width="20" height="20" relative="1" as="geometry">
            <mxPoint x="-27" y="7" as="offset" />
          </mxGeometry>
        </mxCell>
        <mxCell id="Q52SVTJZsQ3tDjHk9fBw-5" value="&lt;b&gt;&lt;br&gt;&lt;/b&gt;" style="html=1;dropTarget=0;whiteSpace=wrap;" vertex="1" parent="1">
          <mxGeometry x="270" y="500" width="180" height="110" as="geometry" />
        </mxCell>
        <mxCell id="Q52SVTJZsQ3tDjHk9fBw-6" value="" style="shape=module;jettyWidth=8;jettyHeight=4;" vertex="1" parent="Q52SVTJZsQ3tDjHk9fBw-5">
          <mxGeometry x="1" width="20" height="20" relative="1" as="geometry">
            <mxPoint x="-27" y="7" as="offset" />
          </mxGeometry>
        </mxCell>
        <mxCell id="Q52SVTJZsQ3tDjHk9fBw-7" value="&lt;b&gt;&lt;br&gt;&lt;/b&gt;" style="html=1;dropTarget=0;whiteSpace=wrap;" vertex="1" parent="1">
          <mxGeometry x="270" y="770" width="180" height="230" as="geometry" />
        </mxCell>
        <mxCell id="Q52SVTJZsQ3tDjHk9fBw-8" value="" style="shape=module;jettyWidth=8;jettyHeight=4;" vertex="1" parent="Q52SVTJZsQ3tDjHk9fBw-7">
          <mxGeometry x="1" width="20" height="20" relative="1" as="geometry">
            <mxPoint x="-27" y="7" as="offset" />
          </mxGeometry>
        </mxCell>
        <mxCell id="Q52SVTJZsQ3tDjHk9fBw-20" value="" style="rounded=0;orthogonalLoop=1;jettySize=auto;html=1;endArrow=halfCircle;endFill=0;endSize=6;strokeWidth=1;sketch=0;exitX=0.5;exitY=1;exitDx=0;exitDy=0;" edge="1" target="Q52SVTJZsQ3tDjHk9fBw-22" parent="1" source="Q52SVTJZsQ3tDjHk9fBw-1">
          <mxGeometry relative="1" as="geometry">
            <mxPoint x="380" y="275" as="sourcePoint" />
          </mxGeometry>
        </mxCell>
        <mxCell id="Q52SVTJZsQ3tDjHk9fBw-21" value="" style="rounded=0;orthogonalLoop=1;jettySize=auto;html=1;endArrow=oval;endFill=0;sketch=0;sourcePerimeterSpacing=0;targetPerimeterSpacing=0;endSize=10;exitX=0.5;exitY=0;exitDx=0;exitDy=0;" edge="1" target="Q52SVTJZsQ3tDjHk9fBw-22" parent="1" source="Q52SVTJZsQ3tDjHk9fBw-3">
          <mxGeometry relative="1" as="geometry">
            <mxPoint x="340" y="275" as="sourcePoint" />
          </mxGeometry>
        </mxCell>
        <mxCell id="Q52SVTJZsQ3tDjHk9fBw-22" value="" style="ellipse;whiteSpace=wrap;html=1;align=center;aspect=fixed;fillColor=none;strokeColor=none;resizable=0;perimeter=centerPerimeter;rotatable=0;allowArrows=0;points=[];outlineConnect=1;" vertex="1" parent="1">
          <mxGeometry x="355" y="270" width="10" height="10" as="geometry" />
        </mxCell>
        <mxCell id="Q52SVTJZsQ3tDjHk9fBw-23" value="" style="rounded=0;orthogonalLoop=1;jettySize=auto;html=1;endArrow=halfCircle;endFill=0;endSize=6;strokeWidth=1;sketch=0;exitX=0.5;exitY=1;exitDx=0;exitDy=0;" edge="1" target="Q52SVTJZsQ3tDjHk9fBw-25" parent="1" source="Q52SVTJZsQ3tDjHk9fBw-3">
          <mxGeometry relative="1" as="geometry">
            <mxPoint x="380" y="435" as="sourcePoint" />
          </mxGeometry>
        </mxCell>
        <mxCell id="Q52SVTJZsQ3tDjHk9fBw-24" value="" style="rounded=0;orthogonalLoop=1;jettySize=auto;html=1;endArrow=oval;endFill=0;sketch=0;sourcePerimeterSpacing=0;targetPerimeterSpacing=0;endSize=10;exitX=0.5;exitY=0;exitDx=0;exitDy=0;" edge="1" target="Q52SVTJZsQ3tDjHk9fBw-25" parent="1" source="Q52SVTJZsQ3tDjHk9fBw-5">
          <mxGeometry relative="1" as="geometry">
            <mxPoint x="340" y="435" as="sourcePoint" />
          </mxGeometry>
        </mxCell>
        <mxCell id="Q52SVTJZsQ3tDjHk9fBw-25" value="" style="ellipse;whiteSpace=wrap;html=1;align=center;aspect=fixed;fillColor=none;strokeColor=none;resizable=0;perimeter=centerPerimeter;rotatable=0;allowArrows=0;points=[];outlineConnect=1;" vertex="1" parent="1">
          <mxGeometry x="355" y="450" width="10" height="10" as="geometry" />
        </mxCell>
        <mxCell id="Q52SVTJZsQ3tDjHk9fBw-35" value="" style="rounded=0;orthogonalLoop=1;jettySize=auto;html=1;endArrow=halfCircle;endFill=0;endSize=6;strokeWidth=1;sketch=0;exitX=0.5;exitY=1;exitDx=0;exitDy=0;" edge="1" target="Q52SVTJZsQ3tDjHk9fBw-37" parent="1" source="Q52SVTJZsQ3tDjHk9fBw-5">
          <mxGeometry relative="1" as="geometry">
            <mxPoint x="380" y="590" as="sourcePoint" />
          </mxGeometry>
        </mxCell>
        <mxCell id="Q52SVTJZsQ3tDjHk9fBw-36" value="" style="rounded=0;orthogonalLoop=1;jettySize=auto;html=1;endArrow=oval;endFill=0;sketch=0;sourcePerimeterSpacing=0;targetPerimeterSpacing=0;endSize=10;exitX=0.5;exitY=0;exitDx=0;exitDy=0;" edge="1" target="Q52SVTJZsQ3tDjHk9fBw-37" parent="1" source="Q52SVTJZsQ3tDjHk9fBw-7">
          <mxGeometry relative="1" as="geometry">
            <mxPoint x="340" y="590" as="sourcePoint" />
          </mxGeometry>
        </mxCell>
        <mxCell id="Q52SVTJZsQ3tDjHk9fBw-37" value="" style="ellipse;whiteSpace=wrap;html=1;align=center;aspect=fixed;fillColor=none;strokeColor=none;resizable=0;perimeter=centerPerimeter;rotatable=0;allowArrows=0;points=[];outlineConnect=1;" vertex="1" parent="1">
          <mxGeometry x="355" y="700" width="10" height="10" as="geometry" />
        </mxCell>
        <mxCell id="Q52SVTJZsQ3tDjHk9fBw-54" value="&lt;font style=&quot;font-size: 8px;&quot;&gt;AProduct&lt;/font&gt;" style="html=1;whiteSpace=wrap;" vertex="1" parent="1">
          <mxGeometry x="310" y="840" width="60" height="20" as="geometry" />
        </mxCell>
        <mxCell id="Q52SVTJZsQ3tDjHk9fBw-60" style="edgeStyle=orthogonalEdgeStyle;rounded=0;orthogonalLoop=1;jettySize=auto;html=1;entryX=0.5;entryY=1;entryDx=0;entryDy=0;endArrow=block;endFill=0;" edge="1" parent="1" source="Q52SVTJZsQ3tDjHk9fBw-55" target="Q52SVTJZsQ3tDjHk9fBw-54">
          <mxGeometry relative="1" as="geometry" />
        </mxCell>
        <mxCell id="Q52SVTJZsQ3tDjHk9fBw-55" value="&lt;font style=&quot;font-size: 8px;&quot;&gt;PerishableProduct&lt;/font&gt;" style="html=1;whiteSpace=wrap;" vertex="1" parent="1">
          <mxGeometry x="285" y="900" width="73.33" height="20" as="geometry" />
        </mxCell>
        <mxCell id="Q52SVTJZsQ3tDjHk9fBw-61" style="edgeStyle=orthogonalEdgeStyle;rounded=0;orthogonalLoop=1;jettySize=auto;html=1;entryX=0.5;entryY=1;entryDx=0;entryDy=0;endArrow=block;endFill=0;" edge="1" parent="1" source="Q52SVTJZsQ3tDjHk9fBw-56" target="Q52SVTJZsQ3tDjHk9fBw-55">
          <mxGeometry relative="1" as="geometry" />
        </mxCell>
        <mxCell id="Q52SVTJZsQ3tDjHk9fBw-56" value="&lt;font style=&quot;font-size: 8px;&quot;&gt;CoffeeProduct&lt;/font&gt;" style="html=1;whiteSpace=wrap;" vertex="1" parent="1">
          <mxGeometry x="286.65999999999997" y="950" width="70" height="20" as="geometry" />
        </mxCell>
        <mxCell id="Q52SVTJZsQ3tDjHk9fBw-63" style="edgeStyle=orthogonalEdgeStyle;rounded=0;orthogonalLoop=1;jettySize=auto;html=1;entryX=0.75;entryY=1;entryDx=0;entryDy=0;endArrow=block;endFill=0;" edge="1" parent="1" source="Q52SVTJZsQ3tDjHk9fBw-58" target="Q52SVTJZsQ3tDjHk9fBw-54">
          <mxGeometry relative="1" as="geometry" />
        </mxCell>
        <mxCell id="Q52SVTJZsQ3tDjHk9fBw-58" value="&lt;font style=&quot;font-size: 8px;&quot;&gt;Product&lt;/font&gt;" style="html=1;whiteSpace=wrap;" vertex="1" parent="1">
          <mxGeometry x="370" y="900" width="70" height="20" as="geometry" />
        </mxCell>
        <mxCell id="Q52SVTJZsQ3tDjHk9fBw-64" value="" style="line;strokeWidth=1;fillColor=none;align=left;verticalAlign=middle;spacingTop=-1;spacingLeft=3;spacingRight=3;rotatable=0;labelPosition=right;points=[];portConstraint=eastwest;strokeColor=inherit;" vertex="1" parent="1">
          <mxGeometry x="270" y="770" width="180" height="78" as="geometry" />
        </mxCell>
        <mxCell id="Q52SVTJZsQ3tDjHk9fBw-66" value="«component»&lt;br style=&quot;border-color: var(--border-color);&quot;&gt;&lt;b style=&quot;border-color: var(--border-color);&quot;&gt;Product Component&lt;/b&gt;" style="text;html=1;align=center;verticalAlign=middle;resizable=0;points=[];autosize=1;strokeColor=none;fillColor=none;" vertex="1" parent="1">
          <mxGeometry x="290" y="770" width="140" height="40" as="geometry" />
        </mxCell>
        <mxCell id="Q52SVTJZsQ3tDjHk9fBw-67" value="packaged elements" style="text;whiteSpace=wrap;" vertex="1" parent="1">
          <mxGeometry x="300" y="808" width="140" height="40" as="geometry" />
        </mxCell>
        <mxCell id="Q52SVTJZsQ3tDjHk9fBw-68" value="&lt;font style=&quot;font-size: 10px;&quot;&gt;realizations&lt;/font&gt;" style="text;html=1;align=center;verticalAlign=middle;resizable=0;points=[];autosize=1;strokeColor=none;fillColor=none;" vertex="1" parent="1">
          <mxGeometry x="325" y="552" width="70" height="30" as="geometry" />
        </mxCell>
        <mxCell id="Q52SVTJZsQ3tDjHk9fBw-69" value="Goods&lt;br&gt;Roaster" style="text;html=1;align=center;verticalAlign=middle;resizable=0;points=[];autosize=1;strokeColor=none;fillColor=none;" vertex="1" parent="1">
          <mxGeometry x="270" y="570" width="70" height="40" as="geometry" />
        </mxCell>
        <mxCell id="Q52SVTJZsQ3tDjHk9fBw-70" value="" style="line;strokeWidth=1;fillColor=none;align=left;verticalAlign=middle;spacingTop=-1;spacingLeft=3;spacingRight=3;rotatable=0;labelPosition=right;points=[];portConstraint=eastwest;strokeColor=inherit;" vertex="1" parent="1">
          <mxGeometry x="270" y="552" width="180" height="8" as="geometry" />
        </mxCell>
        <mxCell id="Q52SVTJZsQ3tDjHk9fBw-73" value="&lt;div style=&quot;&quot;&gt;«component»&lt;/div&gt;&lt;b style=&quot;border-color: var(--border-color); color: rgb(0, 0, 0); font-family: Helvetica; font-size: 12px; font-style: normal; font-variant-ligatures: normal; font-variant-caps: normal; letter-spacing: normal; orphans: 2; text-indent: 0px; text-transform: none; widows: 2; word-spacing: 0px; -webkit-text-stroke-width: 0px; background-color: rgb(251, 251, 251); text-decoration-thickness: initial; text-decoration-style: initial; text-decoration-color: initial;&quot;&gt;Processing Component&lt;/b&gt;" style="text;whiteSpace=wrap;html=1;align=center;" vertex="1" parent="1">
          <mxGeometry x="275" y="510" width="170" height="50" as="geometry" />
        </mxCell>
        <mxCell id="Q52SVTJZsQ3tDjHk9fBw-74" value="&lt;span style=&quot;color: rgb(0, 0, 0); font-family: Helvetica; font-size: 12px; font-style: normal; font-variant-ligatures: normal; font-variant-caps: normal; font-weight: 400; letter-spacing: normal; orphans: 2; text-indent: 0px; text-transform: none; widows: 2; word-spacing: 0px; -webkit-text-stroke-width: 0px; background-color: rgb(251, 251, 251); text-decoration-thickness: initial; text-decoration-style: initial; text-decoration-color: initial; float: none; display: inline !important;&quot;&gt;«component»&lt;/span&gt;&lt;br style=&quot;border-color: var(--border-color); color: rgb(0, 0, 0); font-family: Helvetica; font-size: 12px; font-style: normal; font-variant-ligatures: normal; font-variant-caps: normal; font-weight: 400; letter-spacing: normal; orphans: 2; text-indent: 0px; text-transform: none; widows: 2; word-spacing: 0px; -webkit-text-stroke-width: 0px; background-color: rgb(251, 251, 251); text-decoration-thickness: initial; text-decoration-style: initial; text-decoration-color: initial;&quot;&gt;&lt;b style=&quot;border-color: var(--border-color); color: rgb(0, 0, 0); font-family: Helvetica; font-size: 12px; font-style: normal; font-variant-ligatures: normal; font-variant-caps: normal; letter-spacing: normal; orphans: 2; text-indent: 0px; text-transform: none; widows: 2; word-spacing: 0px; -webkit-text-stroke-width: 0px; background-color: rgb(251, 251, 251); text-decoration-thickness: initial; text-decoration-style: initial; text-decoration-color: initial;&quot;&gt;Sales Component&lt;/b&gt;" style="text;whiteSpace=wrap;html=1;align=center;" vertex="1" parent="1">
          <mxGeometry x="295" y="300" width="130" height="50" as="geometry" />
        </mxCell>
        <mxCell id="Q52SVTJZsQ3tDjHk9fBw-75" value="&lt;font style=&quot;font-size: 10px;&quot;&gt;realizations&lt;/font&gt;" style="text;html=1;align=center;verticalAlign=middle;resizable=0;points=[];autosize=1;strokeColor=none;fillColor=none;" vertex="1" parent="1">
          <mxGeometry x="324" y="330" width="70" height="30" as="geometry" />
        </mxCell>
        <mxCell id="Q52SVTJZsQ3tDjHk9fBw-76" value="Catalogue&lt;br&gt;Order" style="text;html=1;align=center;verticalAlign=middle;resizable=0;points=[];autosize=1;strokeColor=none;fillColor=none;" vertex="1" parent="1">
          <mxGeometry x="265" y="350" width="80" height="40" as="geometry" />
        </mxCell>
        <mxCell id="Q52SVTJZsQ3tDjHk9fBw-87" value="" style="rounded=0;orthogonalLoop=1;jettySize=auto;html=1;endArrow=oval;endFill=0;sketch=0;sourcePerimeterSpacing=0;targetPerimeterSpacing=0;endSize=10;exitX=0.5;exitY=0;exitDx=0;exitDy=0;" edge="1" parent="1" source="Q52SVTJZsQ3tDjHk9fBw-1">
          <mxGeometry relative="1" as="geometry">
            <mxPoint x="339" y="115" as="sourcePoint" />
            <mxPoint x="360" y="130" as="targetPoint" />
          </mxGeometry>
        </mxCell>
        <mxCell id="Q52SVTJZsQ3tDjHk9fBw-88" value="" style="ellipse;whiteSpace=wrap;html=1;align=center;aspect=fixed;fillColor=none;strokeColor=none;resizable=0;perimeter=centerPerimeter;rotatable=0;allowArrows=0;points=[];outlineConnect=1;" vertex="1" parent="1">
          <mxGeometry x="354" y="110" width="10" height="10" as="geometry" />
        </mxCell>
        <mxCell id="Q52SVTJZsQ3tDjHk9fBw-89" value="User Interface" style="text;html=1;align=center;verticalAlign=middle;resizable=0;points=[];autosize=1;strokeColor=none;fillColor=none;" vertex="1" parent="1">
          <mxGeometry x="309" y="100" width="100" height="30" as="geometry" />
        </mxCell>
        <mxCell id="Q52SVTJZsQ3tDjHk9fBw-90" value="" style="line;strokeWidth=1;fillColor=none;align=left;verticalAlign=middle;spacingTop=-1;spacingLeft=3;spacingRight=3;rotatable=0;labelPosition=right;points=[];portConstraint=eastwest;strokeColor=inherit;" vertex="1" parent="1">
          <mxGeometry x="271" y="336" width="180" height="8" as="geometry" />
        </mxCell>
      </root>
    </mxGraphModel>
  </diagram>
</mxfile>
